<svg width="149" height="43" viewBox="0 0 149 43" fill="none" xmlns="http://www.w3.org/2000/svg">
<path d="M0.09375 25.1166V1.12283H7.8225C9.94283 1.12283 11.8489 1.60622 13.5408 2.573C15.2327 3.52879 16.551 4.88558 17.4958 6.64337C18.4516 8.39016 18.935 10.3512 18.946 12.5264V13.6306C18.946 15.8278 18.4791 17.7998 17.5452 19.5466C16.6224 21.2824 15.3151 22.6447 13.6232 23.6334C11.9423 24.6112 10.0637 25.1056 7.9873 25.1166H0.09375ZM5.87796 5.5887V20.6672H7.88842C9.54733 20.6672 10.8217 20.0794 11.7116 18.9039C12.6015 17.7174 13.0464 15.9596 13.0464 13.6306V12.5924C13.0464 10.2743 12.6015 8.52749 11.7116 7.35197C10.8217 6.17646 9.52536 5.5887 7.8225 5.5887H5.87796Z" fill="white"/>
<path d="M30.2837 25.4462C27.5481 25.4462 25.3344 24.6332 23.6426 23.0072C21.9507 21.3703 21.1048 19.2445 21.1048 16.6298V16.1684C21.1048 14.3447 21.4398 12.7352 22.11 11.3399C22.7911 9.9447 23.7799 8.86806 25.0762 8.11002C26.3726 7.34099 27.9107 6.95647 29.6904 6.95647C32.1953 6.95647 34.1728 7.73649 35.623 9.29652C37.0731 10.8456 37.7982 13.0098 37.7982 15.7893V17.9481H26.7571C26.9549 18.9479 27.3888 19.7334 28.059 20.3046C28.7291 20.8759 29.5971 21.1616 30.6627 21.1616C32.4205 21.1616 33.7938 20.5463 34.7825 19.3159L37.3203 22.3151C36.6282 23.2709 35.6449 24.0344 34.3705 24.6057C33.1071 25.166 31.7448 25.4462 30.2837 25.4462ZM29.6575 11.2411C28.0315 11.2411 27.0647 12.3177 26.7571 14.471H32.3601V14.0425C32.382 13.1527 32.1568 12.466 31.6844 11.9826C31.212 11.4883 30.5364 11.2411 29.6575 11.2411Z" fill="white"/>
<path d="M46.9277 18.5084L49.7456 7.28606H55.5958L49.7786 25.1166H44.1098L38.2926 7.28606H44.1592L46.9277 18.5084Z" fill="white"/>
<path d="M69.8833 18.7391C69.8833 17.8932 69.5811 17.234 68.9769 16.7616C68.3836 16.2892 67.3345 15.8003 65.8294 15.295C64.3243 14.7896 63.0938 14.3007 62.138 13.8283C59.0289 12.3012 57.4744 10.2029 57.4744 7.53324C57.4744 6.20392 57.8589 5.0339 58.6279 4.02317C59.408 3.00146 60.5066 2.21046 61.9238 1.65016C63.341 1.07888 64.934 0.793243 66.7028 0.793243C68.4276 0.793243 69.9711 1.10086 71.3334 1.71608C72.7067 2.3313 73.7723 3.2102 74.5304 4.35275C75.2884 5.48433 75.6675 6.78069 75.6675 8.24185H69.8997C69.8997 7.26408 69.5976 6.50604 68.9934 5.96772C68.4001 5.4294 67.5926 5.16024 66.5709 5.16024C65.5382 5.16024 64.7198 5.39095 64.1155 5.85236C63.5223 6.3028 63.2256 6.87957 63.2256 7.58268C63.2256 8.19791 63.5552 8.7582 64.2144 9.26356C64.8736 9.75794 66.0326 10.2743 67.6915 10.8126C69.3504 11.3399 70.7127 11.9112 71.7784 12.5264C74.3711 14.0206 75.6675 16.0805 75.6675 18.7062C75.6675 20.8045 74.8765 22.4524 73.2945 23.6499C71.7124 24.8474 69.5427 25.4462 66.7852 25.4462C64.8406 25.4462 63.0773 25.1001 61.4953 24.408C59.9243 23.7049 58.7378 22.7491 57.9358 21.5406C57.1448 20.3211 56.7493 18.9204 56.7493 17.3384H62.55C62.55 18.6238 62.8796 19.5741 63.5388 20.1893C64.2089 20.7935 65.291 21.0956 66.7852 21.0956C67.741 21.0956 68.4935 20.8924 69.0428 20.4859C69.6031 20.0684 69.8833 19.4862 69.8833 18.7391Z" fill="white"/>
<path d="M94.9317 16.3331C94.9317 19.1017 94.3055 21.3154 93.053 22.9743C91.8116 24.6222 90.1307 25.4462 88.0104 25.4462C86.3735 25.4462 85.0277 24.8474 83.973 23.6499V31.9719H78.4195V7.28606H83.6104L83.7752 8.93398C84.8409 7.61564 86.2416 6.95647 87.9774 6.95647C90.1747 6.95647 91.883 7.76945 93.1025 9.3954C94.3219 11.0104 94.9317 13.2351 94.9317 16.0695V16.3331ZM89.3782 15.9871C89.3782 12.8231 88.4553 11.2411 86.6097 11.2411C85.2913 11.2411 84.4124 11.7135 83.973 12.6583V19.6784C84.4564 20.6672 85.3463 21.1616 86.6426 21.1616C88.4114 21.1616 89.3232 19.6345 89.3782 16.5803V15.9871Z" fill="white"/>
<path d="M107.439 25.1166C107.242 24.754 107.066 24.2212 106.912 23.5181C105.89 24.8035 104.462 25.4462 102.627 25.4462C100.947 25.4462 99.5184 24.9408 98.3429 23.9301C97.1674 22.9084 96.5796 21.6285 96.5796 20.0904C96.5796 18.1568 97.2937 16.6957 98.7219 15.7069C100.15 14.7182 102.226 14.2238 104.951 14.2238H106.665V13.2845C106.665 11.6476 105.956 10.8291 104.539 10.8291C103.221 10.8291 102.562 11.4773 102.562 12.7736H97.0081C97.0081 11.0488 97.7386 9.64808 99.1998 8.57144C100.672 7.49479 102.545 6.95647 104.819 6.95647C107.093 6.95647 108.89 7.51127 110.208 8.62087C111.526 9.73047 112.202 11.2521 112.235 13.1856V21.0792C112.257 22.7161 112.51 23.9685 112.993 24.8364V25.1166H107.439ZM103.962 21.4911C104.654 21.4911 105.226 21.3428 105.676 21.0462C106.138 20.7496 106.467 20.4145 106.665 20.041V17.1901H105.05C103.116 17.1901 102.15 18.058 102.15 19.7938C102.15 20.2991 102.32 20.7111 102.66 21.0297C103.001 21.3373 103.435 21.4911 103.962 21.4911Z" fill="white"/>
<path d="M122.864 21.1616C123.644 21.1616 124.248 20.9528 124.677 20.5353C125.105 20.1069 125.314 19.5136 125.303 18.7556H130.51C130.51 20.7111 129.807 22.3151 128.401 23.5675C127.006 24.8199 125.204 25.4462 122.996 25.4462C120.403 25.4462 118.36 24.6332 116.866 23.0072C115.371 21.3813 114.624 19.1291 114.624 16.2508V16.02C114.624 14.2183 114.954 12.6308 115.613 11.2575C116.283 9.87329 117.245 8.81313 118.497 8.07706C119.749 7.33 121.233 6.95647 122.946 6.95647C125.264 6.95647 127.105 7.59916 128.467 8.88454C129.829 10.1699 130.51 11.9112 130.51 14.1085H125.303C125.303 13.1856 125.078 12.477 124.627 11.9826C124.177 11.4883 123.573 11.2411 122.815 11.2411C121.375 11.2411 120.535 12.1584 120.293 13.9931C120.216 14.5754 120.178 15.3774 120.178 16.3991C120.178 18.1898 120.392 19.4312 120.821 20.1234C121.249 20.8155 121.93 21.1616 122.864 21.1616Z" fill="white"/>
<path d="M141.485 25.4462C138.75 25.4462 136.536 24.6332 134.844 23.0072C133.152 21.3703 132.307 19.2445 132.307 16.6298V16.1684C132.307 14.3447 132.642 12.7352 133.312 11.3399C133.993 9.9447 134.982 8.86806 136.278 8.11002C137.574 7.34099 139.112 6.95647 140.892 6.95647C143.397 6.95647 145.375 7.73649 146.825 9.29652C148.275 10.8456 149 13.0098 149 15.7893V17.9481H137.959C138.157 18.9479 138.591 19.7334 139.261 20.3046C139.931 20.8759 140.799 21.1616 141.864 21.1616C143.622 21.1616 144.996 20.5463 145.984 19.3159L148.522 22.3151C147.83 23.2709 146.847 24.0344 145.572 24.6057C144.309 25.166 142.947 25.4462 141.485 25.4462ZM140.859 11.2411C139.233 11.2411 138.267 12.3177 137.959 14.471H143.562V14.0425C143.584 13.1527 143.359 12.466 142.886 11.9826C142.414 11.4883 141.738 11.2411 140.859 11.2411Z" fill="white"/>
<path d="M117.611 37.7838C117.611 37.4048 117.737 37.0972 117.99 36.861C118.248 36.6248 118.57 36.5067 118.954 36.5067C119.344 36.5067 119.665 36.6248 119.918 36.861C120.176 37.0972 120.305 37.4048 120.305 37.7838C120.305 38.1573 120.179 38.4622 119.926 38.6984C119.674 38.9291 119.35 39.0445 118.954 39.0445C118.564 39.0445 118.243 38.9291 117.99 38.6984C117.737 38.4622 117.611 38.1573 117.611 37.7838Z" fill="#3F3D56"/>
<path d="M127.564 38.9538C127.455 38.7396 127.375 38.4732 127.326 38.1546C126.749 38.7973 125.999 39.1186 125.076 39.1186C124.203 39.1186 123.478 38.8659 122.901 38.3606C122.33 37.8552 122.044 37.218 122.044 36.449C122.044 35.5042 122.393 34.7791 123.09 34.2737C123.793 33.7684 124.807 33.5129 126.131 33.5075H127.227V32.9966C127.227 32.5846 127.12 32.255 126.905 32.0078C126.697 31.7607 126.364 31.6371 125.908 31.6371C125.507 31.6371 125.191 31.7332 124.961 31.9255C124.736 32.1177 124.623 32.3814 124.623 32.7165H122.242C122.242 32.2001 122.401 31.7222 122.72 31.2828C123.038 30.8433 123.489 30.5 124.071 30.2528C124.653 30.0001 125.307 29.8738 126.032 29.8738C127.131 29.8738 128.001 30.1512 128.644 30.706C129.292 31.2553 129.616 32.0298 129.616 33.0296V36.8939C129.622 37.7399 129.74 38.3798 129.97 38.8138V38.9538H127.564ZM125.595 37.2977C125.947 37.2977 126.271 37.2208 126.567 37.067C126.864 36.9077 127.084 36.6962 127.227 36.4325V34.8999H126.337C125.145 34.8999 124.51 35.3119 124.433 36.1359L124.425 36.276C124.425 36.5726 124.53 36.817 124.738 37.0093C124.947 37.2015 125.233 37.2977 125.595 37.2977Z" fill="#3F3D56"/>
<path d="M139.471 34.5786C139.471 35.9519 139.158 37.0532 138.531 37.8827C137.911 38.7066 137.07 39.1186 136.01 39.1186C135.109 39.1186 134.381 38.8055 133.827 38.1793V42.3815H131.445V30.0386H133.654L133.736 30.912C134.313 30.2199 135.065 29.8738 135.994 29.8738C137.092 29.8738 137.946 30.2803 138.556 31.0932C139.166 31.9062 139.471 33.0268 139.471 34.455V34.5786ZM137.089 34.4056C137.089 33.5761 136.941 32.9362 136.645 32.4857C136.353 32.0353 135.928 31.8101 135.367 31.8101C134.62 31.8101 134.107 32.0957 133.827 32.667V36.3172C134.118 36.9049 134.637 37.1988 135.384 37.1988C136.521 37.1988 137.089 36.2677 137.089 34.4056Z" fill="#3F3D56"/>
<path d="M148.979 34.5786C148.979 35.9519 148.666 37.0532 148.04 37.8827C147.419 38.7066 146.579 39.1186 145.519 39.1186C144.618 39.1186 143.89 38.8055 143.335 38.1793V42.3815H140.954V30.0386H143.162L143.244 30.912C143.821 30.2199 144.574 29.8738 145.502 29.8738C146.601 29.8738 147.455 30.2803 148.065 31.0932C148.674 31.9062 148.979 33.0268 148.979 34.455V34.5786ZM146.598 34.4056C146.598 33.5761 146.45 32.9362 146.153 32.4857C145.862 32.0353 145.436 31.8101 144.876 31.8101C144.129 31.8101 143.615 32.0957 143.335 32.667V36.3172C143.626 36.9049 144.145 37.1988 144.892 37.1988C146.029 37.1988 146.598 36.2677 146.598 34.4056Z" fill="#3F3D56"/>
</svg>
